<svg width="363" height="292" viewBox="0 0 363 292" fill="none" xmlns="http://www.w3.org/2000/svg">
<path d="M11.1719 263.281L4.375 283H0.265625L8.82812 260.25H11.4531L11.1719 263.281ZM16.8594 283L10.0469 263.281L9.75 260.25H12.3906L20.9844 283H16.8594ZM16.5312 274.562V277.672H4.15625V274.562H16.5312ZM26.9375 269.312V283H23.1719V266.094H26.7656L26.9375 269.312ZM32.1094 265.984L32.0781 269.484C31.849 269.443 31.599 269.411 31.3281 269.391C31.0677 269.37 30.8073 269.359 30.5469 269.359C29.901 269.359 29.3333 269.453 28.8438 269.641C28.3542 269.818 27.9427 270.078 27.6094 270.422C27.2865 270.755 27.0365 271.161 26.8594 271.641C26.6823 272.12 26.5781 272.656 26.5469 273.25L25.6875 273.312C25.6875 272.25 25.7917 271.266 26 270.359C26.2083 269.453 26.5208 268.656 26.9375 267.969C27.3646 267.281 27.8958 266.745 28.5312 266.359C29.1771 265.974 29.9219 265.781 30.7656 265.781C30.9948 265.781 31.2396 265.802 31.5 265.844C31.7708 265.885 31.974 265.932 32.1094 265.984ZM38.25 269.312V283H34.4844V266.094H38.0781L38.25 269.312ZM43.4219 265.984L43.3906 269.484C43.1615 269.443 42.9115 269.411 42.6406 269.391C42.3802 269.37 42.1198 269.359 41.8594 269.359C41.2135 269.359 40.6458 269.453 40.1562 269.641C39.6667 269.818 39.2552 270.078 38.9219 270.422C38.599 270.755 38.349 271.161 38.1719 271.641C37.9948 272.12 37.8906 272.656 37.8594 273.25L37 273.312C37 272.25 37.1042 271.266 37.3125 270.359C37.5208 269.453 37.8333 268.656 38.25 267.969C38.6771 267.281 39.2083 266.745 39.8438 266.359C40.4896 265.974 41.2344 265.781 42.0781 265.781C42.3073 265.781 42.5521 265.802 42.8125 265.844C43.0833 265.885 43.2865 265.932 43.4219 265.984ZM54.75 279.609V271.547C54.75 270.943 54.6406 270.422 54.4219 269.984C54.2031 269.547 53.8698 269.208 53.4219 268.969C52.9844 268.729 52.4323 268.609 51.7656 268.609C51.151 268.609 50.6198 268.714 50.1719 268.922C49.724 269.13 49.375 269.411 49.125 269.766C48.875 270.12 48.75 270.521 48.75 270.969H45C45 270.302 45.1615 269.656 45.4844 269.031C45.8073 268.406 46.276 267.849 46.8906 267.359C47.5052 266.87 48.2396 266.484 49.0938 266.203C49.9479 265.922 50.9062 265.781 51.9688 265.781C53.2396 265.781 54.3646 265.995 55.3438 266.422C56.3333 266.849 57.1094 267.495 57.6719 268.359C58.2448 269.214 58.5312 270.286 58.5312 271.578V279.094C58.5312 279.865 58.5833 280.557 58.6875 281.172C58.8021 281.776 58.9635 282.302 59.1719 282.75V283H55.3125C55.1354 282.594 54.9948 282.078 54.8906 281.453C54.7969 280.818 54.75 280.203 54.75 279.609ZM55.2969 272.719L55.3281 275.047H52.625C51.9271 275.047 51.3125 275.115 50.7812 275.25C50.25 275.375 49.8073 275.562 49.4531 275.812C49.099 276.062 48.8333 276.365 48.6562 276.719C48.4792 277.073 48.3906 277.474 48.3906 277.922C48.3906 278.37 48.4948 278.781 48.7031 279.156C48.9115 279.521 49.2135 279.807 49.6094 280.016C50.0156 280.224 50.5052 280.328 51.0781 280.328C51.849 280.328 52.5208 280.172 53.0938 279.859C53.6771 279.536 54.1354 279.146 54.4688 278.688C54.8021 278.219 54.9792 277.776 55 277.359L56.2188 279.031C56.0938 279.458 55.8802 279.917 55.5781 280.406C55.276 280.896 54.8802 281.365 54.3906 281.812C53.9115 282.25 53.3333 282.609 52.6562 282.891C51.9896 283.172 51.2188 283.312 50.3438 283.312C49.2396 283.312 48.2552 283.094 47.3906 282.656C46.526 282.208 45.849 281.609 45.3594 280.859C44.8698 280.099 44.625 279.24 44.625 278.281C44.625 277.385 44.7917 276.594 45.125 275.906C45.4688 275.208 45.9688 274.625 46.625 274.156C47.2917 273.688 48.1042 273.333 49.0625 273.094C50.0208 272.844 51.1146 272.719 52.3438 272.719H55.2969ZM71.9531 278.422C71.9531 278.047 71.8594 277.708 71.6719 277.406C71.4844 277.094 71.125 276.812 70.5938 276.562C70.0729 276.312 69.3021 276.083 68.2812 275.875C67.3854 275.677 66.5625 275.443 65.8125 275.172C65.0729 274.891 64.4375 274.552 63.9062 274.156C63.375 273.76 62.9635 273.292 62.6719 272.75C62.3802 272.208 62.2344 271.583 62.2344 270.875C62.2344 270.188 62.3854 269.536 62.6875 268.922C62.9896 268.307 63.4219 267.766 63.9844 267.297C64.5469 266.828 65.2292 266.458 66.0312 266.188C66.8438 265.917 67.75 265.781 68.75 265.781C70.1667 265.781 71.3802 266.021 72.3906 266.5C73.4115 266.969 74.1927 267.609 74.7344 268.422C75.276 269.224 75.5469 270.13 75.5469 271.141H71.7812C71.7812 270.693 71.6667 270.276 71.4375 269.891C71.2188 269.495 70.8854 269.177 70.4375 268.938C69.9896 268.688 69.4271 268.562 68.75 268.562C68.1042 268.562 67.5677 268.667 67.1406 268.875C66.724 269.073 66.4115 269.333 66.2031 269.656C66.0052 269.979 65.9062 270.333 65.9062 270.719C65.9062 271 65.9583 271.255 66.0625 271.484C66.1771 271.703 66.3646 271.906 66.625 272.094C66.8854 272.271 67.2396 272.438 67.6875 272.594C68.1458 272.75 68.7188 272.901 69.4062 273.047C70.6979 273.318 71.8073 273.667 72.7344 274.094C73.6719 274.51 74.3906 275.052 74.8906 275.719C75.3906 276.375 75.6406 277.208 75.6406 278.219C75.6406 278.969 75.4792 279.656 75.1562 280.281C74.8438 280.896 74.3854 281.432 73.7812 281.891C73.1771 282.339 72.4531 282.688 71.6094 282.938C70.776 283.188 69.8385 283.312 68.7969 283.312C67.2656 283.312 65.9688 283.042 64.9062 282.5C63.8438 281.948 63.0365 281.245 62.4844 280.391C61.9427 279.526 61.6719 278.63 61.6719 277.703H65.3125C65.3542 278.401 65.5469 278.958 65.8906 279.375C66.2448 279.781 66.6823 280.078 67.2031 280.266C67.7344 280.443 68.2812 280.531 68.8438 280.531C69.5208 280.531 70.0885 280.443 70.5469 280.266C71.0052 280.078 71.3542 279.828 71.5938 279.516C71.8333 279.193 71.9531 278.828 71.9531 278.422ZM86.6875 266.094V268.844H77.1562V266.094H86.6875ZM79.9062 261.953H83.6719V278.328C83.6719 278.849 83.7448 279.25 83.8906 279.531C84.0469 279.802 84.2604 279.984 84.5312 280.078C84.8021 280.172 85.1198 280.219 85.4844 280.219C85.7448 280.219 85.9948 280.203 86.2344 280.172C86.474 280.141 86.6667 280.109 86.8125 280.078L86.8281 282.953C86.5156 283.047 86.151 283.13 85.7344 283.203C85.3281 283.276 84.8594 283.312 84.3281 283.312C83.4635 283.312 82.6979 283.161 82.0312 282.859C81.3646 282.547 80.8438 282.042 80.4688 281.344C80.0938 280.646 79.9062 279.719 79.9062 278.562V261.953ZM93.375 269.312V283H89.6094V266.094H93.2031L93.375 269.312ZM98.5469 265.984L98.5156 269.484C98.2865 269.443 98.0365 269.411 97.7656 269.391C97.5052 269.37 97.2448 269.359 96.9844 269.359C96.3385 269.359 95.7708 269.453 95.2812 269.641C94.7917 269.818 94.3802 270.078 94.0469 270.422C93.724 270.755 93.474 271.161 93.2969 271.641C93.1198 272.12 93.0156 272.656 92.9844 273.25L92.125 273.312C92.125 272.25 92.2292 271.266 92.4375 270.359C92.6458 269.453 92.9583 268.656 93.375 267.969C93.8021 267.281 94.3333 266.745 94.9688 266.359C95.6146 265.974 96.3594 265.781 97.2031 265.781C97.4323 265.781 97.6771 265.802 97.9375 265.844C98.2083 265.885 98.4115 265.932 98.5469 265.984ZM109.875 279.609V271.547C109.875 270.943 109.766 270.422 109.547 269.984C109.328 269.547 108.995 269.208 108.547 268.969C108.109 268.729 107.557 268.609 106.891 268.609C106.276 268.609 105.745 268.714 105.297 268.922C104.849 269.13 104.5 269.411 104.25 269.766C104 270.12 103.875 270.521 103.875 270.969H100.125C100.125 270.302 100.286 269.656 100.609 269.031C100.932 268.406 101.401 267.849 102.016 267.359C102.63 266.87 103.365 266.484 104.219 266.203C105.073 265.922 106.031 265.781 107.094 265.781C108.365 265.781 109.49 265.995 110.469 266.422C111.458 266.849 112.234 267.495 112.797 268.359C113.37 269.214 113.656 270.286 113.656 271.578V279.094C113.656 279.865 113.708 280.557 113.812 281.172C113.927 281.776 114.089 282.302 114.297 282.75V283H110.438C110.26 282.594 110.12 282.078 110.016 281.453C109.922 280.818 109.875 280.203 109.875 279.609ZM110.422 272.719L110.453 275.047H107.75C107.052 275.047 106.438 275.115 105.906 275.25C105.375 275.375 104.932 275.562 104.578 275.812C104.224 276.062 103.958 276.365 103.781 276.719C103.604 277.073 103.516 277.474 103.516 277.922C103.516 278.37 103.62 278.781 103.828 279.156C104.036 279.521 104.339 279.807 104.734 280.016C105.141 280.224 105.63 280.328 106.203 280.328C106.974 280.328 107.646 280.172 108.219 279.859C108.802 279.536 109.26 279.146 109.594 278.688C109.927 278.219 110.104 277.776 110.125 277.359L111.344 279.031C111.219 279.458 111.005 279.917 110.703 280.406C110.401 280.896 110.005 281.365 109.516 281.812C109.036 282.25 108.458 282.609 107.781 282.891C107.115 283.172 106.344 283.312 105.469 283.312C104.365 283.312 103.38 283.094 102.516 282.656C101.651 282.208 100.974 281.609 100.484 280.859C99.9948 280.099 99.75 279.24 99.75 278.281C99.75 277.385 99.9167 276.594 100.25 275.906C100.594 275.208 101.094 274.625 101.75 274.156C102.417 273.688 103.229 273.333 104.188 273.094C105.146 272.844 106.24 272.719 107.469 272.719H110.422ZM135.094 279.609V271.547C135.094 270.943 134.984 270.422 134.766 269.984C134.547 269.547 134.214 269.208 133.766 268.969C133.328 268.729 132.776 268.609 132.109 268.609C131.495 268.609 130.964 268.714 130.516 268.922C130.068 269.13 129.719 269.411 129.469 269.766C129.219 270.12 129.094 270.521 129.094 270.969H125.344C125.344 270.302 125.505 269.656 125.828 269.031C126.151 268.406 126.62 267.849 127.234 267.359C127.849 266.87 128.583 266.484 129.438 266.203C130.292 265.922 131.25 265.781 132.312 265.781C133.583 265.781 134.708 265.995 135.688 266.422C136.677 266.849 137.453 267.495 138.016 268.359C138.589 269.214 138.875 270.286 138.875 271.578V279.094C138.875 279.865 138.927 280.557 139.031 281.172C139.146 281.776 139.307 282.302 139.516 282.75V283H135.656C135.479 282.594 135.339 282.078 135.234 281.453C135.141 280.818 135.094 280.203 135.094 279.609ZM135.641 272.719L135.672 275.047H132.969C132.271 275.047 131.656 275.115 131.125 275.25C130.594 275.375 130.151 275.562 129.797 275.812C129.443 276.062 129.177 276.365 129 276.719C128.823 277.073 128.734 277.474 128.734 277.922C128.734 278.37 128.839 278.781 129.047 279.156C129.255 279.521 129.557 279.807 129.953 280.016C130.359 280.224 130.849 280.328 131.422 280.328C132.193 280.328 132.865 280.172 133.438 279.859C134.021 279.536 134.479 279.146 134.812 278.688C135.146 278.219 135.323 277.776 135.344 277.359L136.562 279.031C136.438 279.458 136.224 279.917 135.922 280.406C135.62 280.896 135.224 281.365 134.734 281.812C134.255 282.25 133.677 282.609 133 282.891C132.333 283.172 131.562 283.312 130.688 283.312C129.583 283.312 128.599 283.094 127.734 282.656C126.87 282.208 126.193 281.609 125.703 280.859C125.214 280.099 124.969 279.24 124.969 278.281C124.969 277.385 125.135 276.594 125.469 275.906C125.812 275.208 126.312 274.625 126.969 274.156C127.635 273.688 128.448 273.333 129.406 273.094C130.365 272.844 131.458 272.719 132.688 272.719H135.641ZM146.594 269.312V283H142.828V266.094H146.422L146.594 269.312ZM151.766 265.984L151.734 269.484C151.505 269.443 151.255 269.411 150.984 269.391C150.724 269.37 150.464 269.359 150.203 269.359C149.557 269.359 148.99 269.453 148.5 269.641C148.01 269.818 147.599 270.078 147.266 270.422C146.943 270.755 146.693 271.161 146.516 271.641C146.339 272.12 146.234 272.656 146.203 273.25L145.344 273.312C145.344 272.25 145.448 271.266 145.656 270.359C145.865 269.453 146.177 268.656 146.594 267.969C147.021 267.281 147.552 266.745 148.188 266.359C148.833 265.974 149.578 265.781 150.422 265.781C150.651 265.781 150.896 265.802 151.156 265.844C151.427 265.885 151.63 265.932 151.766 265.984ZM160.719 280.312C161.333 280.312 161.885 280.193 162.375 279.953C162.875 279.703 163.276 279.359 163.578 278.922C163.891 278.484 164.062 277.979 164.094 277.406H167.641C167.62 278.5 167.297 279.495 166.672 280.391C166.047 281.286 165.219 282 164.188 282.531C163.156 283.052 162.016 283.312 160.766 283.312C159.474 283.312 158.349 283.094 157.391 282.656C156.432 282.208 155.635 281.594 155 280.812C154.365 280.031 153.885 279.13 153.562 278.109C153.25 277.089 153.094 275.995 153.094 274.828V274.281C153.094 273.115 153.25 272.021 153.562 271C153.885 269.969 154.365 269.062 155 268.281C155.635 267.5 156.432 266.891 157.391 266.453C158.349 266.005 159.469 265.781 160.75 265.781C162.104 265.781 163.292 266.052 164.312 266.594C165.333 267.125 166.135 267.87 166.719 268.828C167.312 269.776 167.62 270.88 167.641 272.141H164.094C164.062 271.516 163.906 270.953 163.625 270.453C163.354 269.943 162.969 269.536 162.469 269.234C161.979 268.932 161.391 268.781 160.703 268.781C159.943 268.781 159.312 268.938 158.812 269.25C158.312 269.552 157.922 269.969 157.641 270.5C157.359 271.021 157.156 271.609 157.031 272.266C156.917 272.911 156.859 273.583 156.859 274.281V274.828C156.859 275.526 156.917 276.203 157.031 276.859C157.146 277.516 157.344 278.104 157.625 278.625C157.917 279.135 158.312 279.547 158.812 279.859C159.312 280.161 159.948 280.312 160.719 280.312ZM174.25 259V283H170.5V259H174.25ZM173.594 273.922L172.375 273.906C172.385 272.74 172.547 271.661 172.859 270.672C173.182 269.682 173.63 268.823 174.203 268.094C174.786 267.354 175.484 266.786 176.297 266.391C177.109 265.984 178.01 265.781 179 265.781C179.833 265.781 180.583 265.896 181.25 266.125C181.927 266.354 182.51 266.724 183 267.234C183.49 267.734 183.859 268.391 184.109 269.203C184.37 270.005 184.5 270.984 184.5 272.141V283H180.719V272.109C180.719 271.297 180.599 270.651 180.359 270.172C180.13 269.693 179.792 269.349 179.344 269.141C178.896 268.922 178.349 268.812 177.703 268.812C177.026 268.812 176.427 268.948 175.906 269.219C175.396 269.49 174.969 269.859 174.625 270.328C174.281 270.797 174.021 271.339 173.844 271.953C173.677 272.568 173.594 273.224 173.594 273.922ZM192.344 266.094V283H188.562V266.094H192.344ZM188.312 261.656C188.312 261.083 188.5 260.609 188.875 260.234C189.26 259.849 189.792 259.656 190.469 259.656C191.135 259.656 191.661 259.849 192.047 260.234C192.432 260.609 192.625 261.083 192.625 261.656C192.625 262.219 192.432 262.688 192.047 263.062C191.661 263.438 191.135 263.625 190.469 263.625C189.792 263.625 189.26 263.438 188.875 263.062C188.5 262.688 188.312 262.219 188.312 261.656ZM201.969 280.016L206.109 266.094H210.016L204.141 283H201.703L201.969 280.016ZM198.797 266.094L203.016 280.078L203.219 283H200.781L194.875 266.094H198.797ZM211.375 274.734V274.375C211.375 273.156 211.552 272.026 211.906 270.984C212.26 269.932 212.771 269.021 213.438 268.25C214.115 267.469 214.938 266.865 215.906 266.438C216.885 266 217.99 265.781 219.219 265.781C220.458 265.781 221.562 266 222.531 266.438C223.51 266.865 224.339 267.469 225.016 268.25C225.693 269.021 226.208 269.932 226.562 270.984C226.917 272.026 227.094 273.156 227.094 274.375V274.734C227.094 275.953 226.917 277.083 226.562 278.125C226.208 279.167 225.693 280.078 225.016 280.859C224.339 281.63 223.516 282.234 222.547 282.672C221.578 283.099 220.479 283.312 219.25 283.312C218.01 283.312 216.901 283.099 215.922 282.672C214.953 282.234 214.13 281.63 213.453 280.859C212.776 280.078 212.26 279.167 211.906 278.125C211.552 277.083 211.375 275.953 211.375 274.734ZM215.141 274.375V274.734C215.141 275.495 215.219 276.214 215.375 276.891C215.531 277.568 215.776 278.161 216.109 278.672C216.443 279.182 216.87 279.583 217.391 279.875C217.911 280.167 218.531 280.312 219.25 280.312C219.948 280.312 220.552 280.167 221.062 279.875C221.583 279.583 222.01 279.182 222.344 278.672C222.677 278.161 222.922 277.568 223.078 276.891C223.245 276.214 223.328 275.495 223.328 274.734V274.375C223.328 273.625 223.245 272.917 223.078 272.25C222.922 271.573 222.672 270.974 222.328 270.453C221.995 269.932 221.568 269.526 221.047 269.234C220.536 268.932 219.927 268.781 219.219 268.781C218.51 268.781 217.896 268.932 217.375 269.234C216.865 269.526 216.443 269.932 216.109 270.453C215.776 270.974 215.531 271.573 215.375 272.25C215.219 272.917 215.141 273.625 215.141 274.375ZM239.734 278.422C239.734 278.047 239.641 277.708 239.453 277.406C239.266 277.094 238.906 276.812 238.375 276.562C237.854 276.312 237.083 276.083 236.062 275.875C235.167 275.677 234.344 275.443 233.594 275.172C232.854 274.891 232.219 274.552 231.688 274.156C231.156 273.76 230.745 273.292 230.453 272.75C230.161 272.208 230.016 271.583 230.016 270.875C230.016 270.188 230.167 269.536 230.469 268.922C230.771 268.307 231.203 267.766 231.766 267.297C232.328 266.828 233.01 266.458 233.812 266.188C234.625 265.917 235.531 265.781 236.531 265.781C237.948 265.781 239.161 266.021 240.172 266.5C241.193 266.969 241.974 267.609 242.516 268.422C243.057 269.224 243.328 270.13 243.328 271.141H239.562C239.562 270.693 239.448 270.276 239.219 269.891C239 269.495 238.667 269.177 238.219 268.938C237.771 268.688 237.208 268.562 236.531 268.562C235.885 268.562 235.349 268.667 234.922 268.875C234.505 269.073 234.193 269.333 233.984 269.656C233.786 269.979 233.688 270.333 233.688 270.719C233.688 271 233.74 271.255 233.844 271.484C233.958 271.703 234.146 271.906 234.406 272.094C234.667 272.271 235.021 272.438 235.469 272.594C235.927 272.75 236.5 272.901 237.188 273.047C238.479 273.318 239.589 273.667 240.516 274.094C241.453 274.51 242.172 275.052 242.672 275.719C243.172 276.375 243.422 277.208 243.422 278.219C243.422 278.969 243.26 279.656 242.938 280.281C242.625 280.896 242.167 281.432 241.562 281.891C240.958 282.339 240.234 282.688 239.391 282.938C238.557 283.188 237.62 283.312 236.578 283.312C235.047 283.312 233.75 283.042 232.688 282.5C231.625 281.948 230.818 281.245 230.266 280.391C229.724 279.526 229.453 278.63 229.453 277.703H233.094C233.135 278.401 233.328 278.958 233.672 279.375C234.026 279.781 234.464 280.078 234.984 280.266C235.516 280.443 236.062 280.531 236.625 280.531C237.302 280.531 237.87 280.443 238.328 280.266C238.786 280.078 239.135 279.828 239.375 279.516C239.615 279.193 239.734 278.828 239.734 278.422ZM264.219 279.609V271.547C264.219 270.943 264.109 270.422 263.891 269.984C263.672 269.547 263.339 269.208 262.891 268.969C262.453 268.729 261.901 268.609 261.234 268.609C260.62 268.609 260.089 268.714 259.641 268.922C259.193 269.13 258.844 269.411 258.594 269.766C258.344 270.12 258.219 270.521 258.219 270.969H254.469C254.469 270.302 254.63 269.656 254.953 269.031C255.276 268.406 255.745 267.849 256.359 267.359C256.974 266.87 257.708 266.484 258.562 266.203C259.417 265.922 260.375 265.781 261.438 265.781C262.708 265.781 263.833 265.995 264.812 266.422C265.802 266.849 266.578 267.495 267.141 268.359C267.714 269.214 268 270.286 268 271.578V279.094C268 279.865 268.052 280.557 268.156 281.172C268.271 281.776 268.432 282.302 268.641 282.75V283H264.781C264.604 282.594 264.464 282.078 264.359 281.453C264.266 280.818 264.219 280.203 264.219 279.609ZM264.766 272.719L264.797 275.047H262.094C261.396 275.047 260.781 275.115 260.25 275.25C259.719 275.375 259.276 275.562 258.922 275.812C258.568 276.062 258.302 276.365 258.125 276.719C257.948 277.073 257.859 277.474 257.859 277.922C257.859 278.37 257.964 278.781 258.172 279.156C258.38 279.521 258.682 279.807 259.078 280.016C259.484 280.224 259.974 280.328 260.547 280.328C261.318 280.328 261.99 280.172 262.562 279.859C263.146 279.536 263.604 279.146 263.938 278.688C264.271 278.219 264.448 277.776 264.469 277.359L265.688 279.031C265.562 279.458 265.349 279.917 265.047 280.406C264.745 280.896 264.349 281.365 263.859 281.812C263.38 282.25 262.802 282.609 262.125 282.891C261.458 283.172 260.688 283.312 259.812 283.312C258.708 283.312 257.724 283.094 256.859 282.656C255.995 282.208 255.318 281.609 254.828 280.859C254.339 280.099 254.094 279.24 254.094 278.281C254.094 277.385 254.26 276.594 254.594 275.906C254.938 275.208 255.438 274.625 256.094 274.156C256.76 273.688 257.573 273.333 258.531 273.094C259.49 272.844 260.583 272.719 261.812 272.719H264.766ZM289.391 278.422C289.391 278.047 289.297 277.708 289.109 277.406C288.922 277.094 288.562 276.812 288.031 276.562C287.51 276.312 286.74 276.083 285.719 275.875C284.823 275.677 284 275.443 283.25 275.172C282.51 274.891 281.875 274.552 281.344 274.156C280.812 273.76 280.401 273.292 280.109 272.75C279.818 272.208 279.672 271.583 279.672 270.875C279.672 270.188 279.823 269.536 280.125 268.922C280.427 268.307 280.859 267.766 281.422 267.297C281.984 266.828 282.667 266.458 283.469 266.188C284.281 265.917 285.188 265.781 286.188 265.781C287.604 265.781 288.818 266.021 289.828 266.5C290.849 266.969 291.63 267.609 292.172 268.422C292.714 269.224 292.984 270.13 292.984 271.141H289.219C289.219 270.693 289.104 270.276 288.875 269.891C288.656 269.495 288.323 269.177 287.875 268.938C287.427 268.688 286.865 268.562 286.188 268.562C285.542 268.562 285.005 268.667 284.578 268.875C284.161 269.073 283.849 269.333 283.641 269.656C283.443 269.979 283.344 270.333 283.344 270.719C283.344 271 283.396 271.255 283.5 271.484C283.615 271.703 283.802 271.906 284.062 272.094C284.323 272.271 284.677 272.438 285.125 272.594C285.583 272.75 286.156 272.901 286.844 273.047C288.135 273.318 289.245 273.667 290.172 274.094C291.109 274.51 291.828 275.052 292.328 275.719C292.828 276.375 293.078 277.208 293.078 278.219C293.078 278.969 292.917 279.656 292.594 280.281C292.281 280.896 291.823 281.432 291.219 281.891C290.615 282.339 289.891 282.688 289.047 282.938C288.214 283.188 287.276 283.312 286.234 283.312C284.703 283.312 283.406 283.042 282.344 282.5C281.281 281.948 280.474 281.245 279.922 280.391C279.38 279.526 279.109 278.63 279.109 277.703H282.75C282.792 278.401 282.984 278.958 283.328 279.375C283.682 279.781 284.12 280.078 284.641 280.266C285.172 280.443 285.719 280.531 286.281 280.531C286.958 280.531 287.526 280.443 287.984 280.266C288.443 280.078 288.792 279.828 289.031 279.516C289.271 279.193 289.391 278.828 289.391 278.422ZM306.547 279.016V266.094H310.328V283H306.766L306.547 279.016ZM307.078 275.5L308.344 275.469C308.344 276.604 308.219 277.651 307.969 278.609C307.719 279.557 307.333 280.385 306.812 281.094C306.292 281.792 305.625 282.339 304.812 282.734C304 283.12 303.026 283.312 301.891 283.312C301.068 283.312 300.312 283.193 299.625 282.953C298.938 282.714 298.344 282.344 297.844 281.844C297.354 281.344 296.974 280.693 296.703 279.891C296.432 279.089 296.297 278.13 296.297 277.016V266.094H300.062V277.047C300.062 277.661 300.135 278.177 300.281 278.594C300.427 279 300.625 279.328 300.875 279.578C301.125 279.828 301.417 280.005 301.75 280.109C302.083 280.214 302.438 280.266 302.812 280.266C303.885 280.266 304.729 280.057 305.344 279.641C305.969 279.214 306.411 278.641 306.672 277.922C306.943 277.203 307.078 276.396 307.078 275.5ZM314.203 259H317.969V279.391L317.609 283H314.203V259ZM329 274.391V274.719C329 275.969 328.859 277.12 328.578 278.172C328.307 279.214 327.891 280.12 327.328 280.891C326.776 281.661 326.089 282.26 325.266 282.688C324.453 283.104 323.51 283.312 322.438 283.312C321.385 283.312 320.469 283.115 319.688 282.719C318.906 282.323 318.25 281.76 317.719 281.031C317.198 280.302 316.776 279.432 316.453 278.422C316.13 277.411 315.901 276.297 315.766 275.078V274.031C315.901 272.802 316.13 271.688 316.453 270.688C316.776 269.677 317.198 268.807 317.719 268.078C318.25 267.339 318.901 266.771 319.672 266.375C320.453 265.979 321.365 265.781 322.406 265.781C323.49 265.781 324.443 265.99 325.266 266.406C326.099 266.823 326.792 267.417 327.344 268.188C327.896 268.948 328.307 269.854 328.578 270.906C328.859 271.958 329 273.12 329 274.391ZM325.234 274.719V274.391C325.234 273.63 325.172 272.917 325.047 272.25C324.922 271.573 324.714 270.979 324.422 270.469C324.141 269.958 323.755 269.557 323.266 269.266C322.786 268.964 322.188 268.812 321.469 268.812C320.802 268.812 320.229 268.927 319.75 269.156C319.271 269.385 318.87 269.698 318.547 270.094C318.224 270.49 317.969 270.948 317.781 271.469C317.604 271.99 317.484 272.552 317.422 273.156V275.984C317.516 276.766 317.714 277.484 318.016 278.141C318.328 278.786 318.766 279.307 319.328 279.703C319.891 280.089 320.615 280.281 321.5 280.281C322.198 280.281 322.786 280.141 323.266 279.859C323.745 279.578 324.125 279.188 324.406 278.688C324.698 278.177 324.906 277.583 325.031 276.906C325.167 276.229 325.234 275.5 325.234 274.719ZM336.219 266.094V283H332.438V266.094H336.219ZM332.188 261.656C332.188 261.083 332.375 260.609 332.75 260.234C333.135 259.849 333.667 259.656 334.344 259.656C335.01 259.656 335.536 259.849 335.922 260.234C336.307 260.609 336.5 261.083 336.5 261.656C336.5 262.219 336.307 262.688 335.922 263.062C335.536 263.438 335.01 263.625 334.344 263.625C333.667 263.625 333.135 263.438 332.75 263.062C332.375 262.688 332.188 262.219 332.188 261.656ZM344.125 269.312V283H340.359V266.094H343.953L344.125 269.312ZM349.297 265.984L349.266 269.484C349.036 269.443 348.786 269.411 348.516 269.391C348.255 269.37 347.995 269.359 347.734 269.359C347.089 269.359 346.521 269.453 346.031 269.641C345.542 269.818 345.13 270.078 344.797 270.422C344.474 270.755 344.224 271.161 344.047 271.641C343.87 272.12 343.766 272.656 343.734 273.25L342.875 273.312C342.875 272.25 342.979 271.266 343.188 270.359C343.396 269.453 343.708 268.656 344.125 267.969C344.552 267.281 345.083 266.745 345.719 266.359C346.365 265.974 347.109 265.781 347.953 265.781C348.182 265.781 348.427 265.802 348.688 265.844C348.958 265.885 349.161 265.932 349.297 265.984Z" fill="#53565A"/>
<path d="M122.172 125.241C119.728 124.228 117.772 122.272 116.759 119.828L117.683 119.445C117.243 118.385 117 117.222 117 116V107.167H116V89.5H117V71.8333H116V54.1667H117V36.5H116V18.8333H117V10C117 8.77783 117.243 7.61496 117.683 6.55518L116.759 6.17212C117.772 3.72772 119.728 1.77246 122.172 0.758805L122.555 1.68253C123.615 1.24306 124.778 1 126 1H134.75V0H152.25V1H169.75V0H187.25V1H204.75V0H222.25V1H231C232.222 1 233.385 1.24306 234.445 1.68253L234.828 0.758804C237.272 1.77246 239.228 3.72772 240.241 6.17212L239.317 6.55517C239.757 7.61496 240 8.77783 240 10V18.8333H241V36.5H240V54.1667H241V71.8333H240V89.5H241V107.167H240V116C240 117.222 239.757 118.385 239.317 119.445L240.241 119.828C239.228 122.272 237.272 124.228 234.828 125.241L234.445 124.317C233.385 124.757 232.222 125 231 125H222.25V126H204.75V125H187.25V126H169.75V125H152.25V126H134.75V125H126C124.778 125 123.615 124.757 122.555 124.317L122.172 125.241Z" stroke="#1EAB93" stroke-width="2" stroke-linejoin="bevel" stroke-dasharray="20 20"/>
<path d="M44 67C44 62.5817 47.5817 59 52 59H144C148.418 59 152 62.5817 152 67V159C152 163.418 148.418 167 144 167H52C47.5817 167 44 163.418 44 159V67Z" fill="white" stroke="#1EAB93" stroke-width="4" stroke-linejoin="bevel"/>
<path d="M51 112.716C51 101.797 66.0007 98.7801 70.2223 108.849L75.8585 122.293C76.3087 123.367 76.9429 124.354 77.7326 125.209L92.5088 141.217C98.4216 147.623 93.8782 158 85.1607 158H61C55.4772 158 51 153.523 51 148V112.716Z" fill="#1EAB93" fill-opacity="0.2"/>
<path d="M199.417 57.9166C199.417 59.0212 198.521 59.9166 197.417 59.9166H183.917C182.812 59.9166 181.917 60.812 181.917 61.9166V75.4166C181.917 76.5212 181.021 77.4166 179.917 77.4166H178.083C176.979 77.4166 176.083 76.5212 176.083 75.4166V61.9166C176.083 60.812 175.188 59.9166 174.083 59.9166H160.583C159.479 59.9166 158.583 59.0212 158.583 57.9166V56.0833C158.583 54.9787 159.479 54.0833 160.583 54.0833H174.083C175.188 54.0833 176.083 53.1878 176.083 52.0833V38.5833C176.083 37.4787 176.979 36.5833 178.083 36.5833H179.917C181.021 36.5833 181.917 37.4787 181.917 38.5833V52.0833C181.917 53.1878 182.812 54.0833 183.917 54.0833H197.417C198.521 54.0833 199.417 54.9787 199.417 56.0833V57.9166Z" fill="#1EAB93"/>
<g clip-path="url(#clip0_470_6034)">
<rect width="109.54" height="124.145" transform="translate(86.5461 156.865) rotate(-46.5)" fill="white"/>
<path d="M156.185 128.569L151.473 133.535C147.741 129.993 142.921 127.905 138.073 127.729C133.224 127.554 128.745 129.305 125.621 132.597C122.496 135.89 120.982 140.455 121.411 145.287C121.84 150.119 124.178 154.824 127.91 158.365L123.197 163.331C117.973 158.373 114.7 151.787 114.099 145.022C113.498 138.257 115.618 131.866 119.992 127.256C124.367 122.647 130.638 120.195 137.425 120.441C144.213 120.687 150.961 123.611 156.185 128.569Z" fill="#1EAB93"/>
<path d="M187.666 134.847C186.454 136.135 185.647 137.762 185.328 139.565C183.489 139.093 181.617 139.078 179.886 139.523C178.155 139.967 176.621 140.857 175.426 142.108C174.214 143.396 173.408 145.024 173.088 146.827C170.62 146.201 168.114 146.405 165.98 147.405C163.846 148.406 162.209 150.143 161.337 152.334L146.76 138.501C144.521 136.376 141.629 135.123 138.72 135.017C135.811 134.912 133.124 135.963 131.249 137.938C129.374 139.914 128.465 142.653 128.723 145.552C128.981 148.452 130.383 151.274 132.622 153.399L163.859 183.041L154.327 184.519C152.051 184.772 150.014 185.771 148.524 187.366C147.118 188.839 146.24 190.753 146.003 192.864C145.766 194.975 146.179 197.187 147.191 199.22C148.203 201.253 149.768 203.014 151.687 204.28C153.605 205.546 155.79 206.259 157.965 206.329L197.359 205.959C202.88 205.854 207.911 203.704 211.485 199.922L223.266 187.507C227.641 182.897 229.761 176.507 229.16 169.741C228.559 162.976 225.286 156.39 220.062 151.432L203.177 135.409C200.938 133.284 198.046 132.031 195.137 131.926C192.228 131.82 189.541 132.871 187.666 134.847ZM215.349 156.398C219.081 159.939 221.419 164.644 221.848 169.476C222.277 174.308 220.763 178.873 217.638 182.166L205.857 194.581C203.509 197.124 200.198 198.61 196.539 198.764L157.263 199.009C156.304 198.971 155.351 198.558 154.61 197.86C154.087 197.364 153.697 196.75 153.482 196.085C153.268 195.421 153.238 194.733 153.396 194.099C153.553 193.465 153.892 192.909 154.375 192.494C154.858 192.08 155.465 191.822 156.129 191.751L179.265 188.223L137.335 148.433C136.589 147.725 136.121 146.784 136.035 145.817C135.949 144.851 136.252 143.938 136.877 143.279C137.502 142.621 138.398 142.271 139.367 142.306C140.337 142.341 141.301 142.758 142.047 143.467L173.003 172.842L177.715 167.876L169.273 159.865C168.527 159.156 168.059 158.216 167.973 157.249C167.887 156.283 168.19 155.37 168.815 154.711C169.44 154.053 170.336 153.702 171.306 153.737C172.275 153.773 173.239 154.19 173.986 154.899L182.428 162.91L187.141 157.944L181.512 152.603C180.766 151.895 180.299 150.954 180.213 149.987C180.127 149.021 180.43 148.108 181.055 147.449C181.68 146.791 182.575 146.441 183.545 146.476C184.515 146.511 185.479 146.929 186.225 147.637L191.853 152.978L196.566 148.012L193.752 145.341C193.005 144.633 192.538 143.692 192.452 142.726C192.366 141.759 192.669 140.846 193.294 140.188C193.919 139.529 194.815 139.179 195.784 139.214C196.754 139.249 197.718 139.667 198.464 140.375L215.349 156.398Z" fill="#1EAB93"/>
</g>
<defs>
<clipPath id="clip0_470_6034">
<rect width="109.54" height="124.145" fill="white" transform="translate(86.5461 156.865) rotate(-46.5)"/>
</clipPath>
</defs>
</svg>
